<svg width="20" height="16" viewBox="0 0 20 16" fill="none" xmlns="http://www.w3.org/2000/svg">
<path d="M19.3953 2.02259C18.6764 2.33794 17.9103 2.54697 17.1117 2.64846C17.9333 2.15791 18.5604 1.38705 18.8552 0.4579C18.0892 0.914619 17.2434 1.23722 16.342 1.41725C15.6147 0.642762 14.578 0.163086 13.4471 0.163086C11.2529 0.163086 9.4864 1.94405 9.4864 4.12736C9.4864 4.44151 9.51298 4.74357 9.57823 5.03114C6.28332 4.87044 3.3678 3.29125 1.40923 0.885621C1.06729 1.47887 0.866721 2.15791 0.866721 2.8889C0.866721 4.26148 1.57355 5.47819 2.62715 6.1826C1.9904 6.17052 1.36573 5.98566 0.836514 5.69447C0.836514 5.70655 0.836514 5.72226 0.836514 5.73797C0.836514 7.66392 2.2103 9.26365 4.0118 9.63217C3.6892 9.72037 3.3376 9.76266 2.97271 9.76266C2.71897 9.76266 2.46282 9.74816 2.22238 9.69499C2.73589 11.2645 4.19304 12.4184 5.92568 12.4559C4.57727 13.5107 2.86517 14.1462 1.01171 14.1462C0.686691 14.1462 0.374962 14.1317 0.0632324 14.0918C1.81882 15.224 3.89944 15.8704 6.14316 15.8704C13.4362 15.8704 17.4234 9.82911 17.4234 4.59254C17.4234 4.41735 17.4174 4.24819 17.4089 4.08024C18.1955 3.52203 18.8564 2.82487 19.3953 2.02259Z" fill="white"/>
</svg>
