<svg width="17" height="17" viewBox="0 0 17 17" fill="none" xmlns="http://www.w3.org/2000/svg">
<path fill-rule="evenodd" clip-rule="evenodd" d="M5.40126 0H11.7278C14.6391 0 16.9999 2.36085 16.9999 5.27211V11.5986C16.9999 14.5099 14.6391 16.8708 11.7278 16.8708H5.40126C2.49 16.8708 0.12915 14.5099 0.12915 11.5986V5.27211C0.12915 2.36085 2.49 0 5.40126 0ZM11.7279 15.2891C13.7629 15.2891 15.4184 13.6337 15.4184 11.5986V5.27211C15.4184 3.23708 13.7629 1.58163 11.7279 1.58163H5.40135C3.36631 1.58163 1.71087 3.23708 1.71087 5.27211V11.5986C1.71087 13.6337 3.36631 15.2891 5.40135 15.2891H11.7279Z" fill="white"/>
<path fill-rule="evenodd" clip-rule="evenodd" d="M4.34692 8.43546C4.34692 6.10624 6.23539 4.21777 8.56461 4.21777C10.8938 4.21777 12.7823 6.10624 12.7823 8.43546C12.7823 10.7647 10.8938 12.6532 8.56461 12.6532C6.23539 12.6532 4.34692 10.7647 4.34692 8.43546ZM5.92856 8.43538C5.92856 9.88838 7.11162 11.0714 8.56462 11.0714C10.0176 11.0714 11.2007 9.88838 11.2007 8.43538C11.2007 6.98133 10.0176 5.79932 8.56462 5.79932C7.11162 5.79932 5.92856 6.98133 5.92856 8.43538Z" fill="white"/>
<circle cx="13.0989" cy="3.90185" r="0.562007" fill="white"/>
</svg>
