<svg width="15" height="19" viewBox="0 0 15 19" fill="none" xmlns="http://www.w3.org/2000/svg">
<path d="M0.5 2.5C0.5 1.5335 1.2835 0.75 2.25 0.75H12.75C13.7165 0.75 14.5 1.5335 14.5 2.5V17.375C14.5 17.7028 14.3168 18.003 14.0254 18.153C13.7339 18.303 13.3831 18.2775 13.1164 18.087L7.5 14.0753L1.88358 18.087C1.61687 18.2775 1.26605 18.303 0.974616 18.153C0.683179 18.003 0.5 17.7028 0.5 17.375V2.5ZM12.75 2.5L2.25 2.5V15.6747L6.99142 12.288C7.29565 12.0707 7.70435 12.0707 8.00858 12.288L12.75 15.6747V2.5Z" fill="white"/>
</svg>
