<svg width="14" height="14" viewBox="0 0 14 14" fill="none" xmlns="http://www.w3.org/2000/svg">
<path d="M9.99 4.216C9.702 3.688 9.306 3.286 8.802 3.01C8.298 2.734 7.71 2.596 7.038 2.596C6.294 2.596 5.634 2.764 5.058 3.1C4.482 3.436 4.032 3.916 3.708 4.54C3.384 5.164 3.222 5.884 3.222 6.7C3.222 7.54 3.384 8.272 3.708 8.896C4.044 9.52 4.506 10 5.094 10.336C5.682 10.672 6.366 10.84 7.146 10.84C8.106 10.84 8.892 10.588 9.504 10.084C10.116 9.568 10.518 8.854 10.71 7.942H6.39V6.016H13.194V8.212C13.026 9.088 12.666 9.898 12.114 10.642C11.562 11.386 10.848 11.986 9.972 12.442C9.108 12.886 8.136 13.108 7.056 13.108C5.844 13.108 4.746 12.838 3.762 12.298C2.79 11.746 2.022 10.984 1.458 10.012C0.906 9.04 0.63 7.936 0.63 6.7C0.63 5.464 0.906 4.36 1.458 3.388C2.022 2.404 2.79 1.642 3.762 1.102C4.746 0.55 5.838 0.274 7.038 0.274C8.454 0.274 9.684 0.622 10.728 1.318C11.772 2.002 12.492 2.968 12.888 4.216H9.99Z" fill="white"/>
</svg>
