<svg width="20" height="20" viewBox="0 0 20 20" fill="none" xmlns="http://www.w3.org/2000/svg">
<path d="M0.585938 5.89844H0V8.82812C0 12.992 1.49004 14.8346 3.49457 16.5563C4.30414 17.2516 4.72656 17.6406 4.72656 18.2031V18.7891H9.41406V18.2031C9.41406 17.0436 9.34316 15.8545 9.20328 14.6688C8.86887 11.8346 6.58762 9.65973 3.80266 9.43352C3.7557 9.18484 3.71402 8.92012 3.67895 8.63785C3.48469 7.07613 2.155 5.89844 0.585938 5.89844ZM5.05047 14.0397L5.57453 12.9916C5.57453 12.9916 5.57809 12.9932 5.58477 12.9968C5.57348 12.9906 4.70633 12.4898 4.10957 10.6517C6.15746 10.9973 7.78723 12.6681 8.03949 14.8061C8.15051 15.7473 8.21633 16.6903 8.23594 17.6172H5.82055C5.60043 16.8202 4.94477 16.2571 4.25809 15.6673C2.88313 14.4864 1.17188 13.0166 1.17188 8.82812V7.16121C1.8791 7.3866 2.41984 8.00926 2.51602 8.7825C2.74988 10.6623 3.55672 13.2928 5.05047 14.0397Z" fill="white"/>
<path d="M20 5.89844H19.4141C17.845 5.89844 16.5153 7.07613 16.321 8.63785C16.2859 8.92008 16.2443 9.18484 16.1973 9.43352C13.4123 9.65973 11.1311 11.8346 10.7967 14.6689C10.6568 15.8545 10.5863 17.0436 10.5863 18.2031L10.5859 18.7891H15.2734V18.2031C15.2734 17.6406 15.6959 17.2516 16.5054 16.5563C18.6238 14.7368 20 12.8917 20 8.82812V5.89844ZM18.8281 8.82812C18.8281 13.0166 17.1169 14.4864 15.7419 15.6673C15.0552 16.2571 14.3995 16.8202 14.1794 17.6172H11.764C11.7836 16.6903 11.8495 15.7473 11.9605 14.8062C12.2127 12.6681 13.8425 10.9973 15.8904 10.6517C15.2937 12.4899 14.4265 12.9906 14.4152 12.9968C14.4219 12.9932 14.4254 12.9916 14.4254 12.9916L14.9495 14.0397C16.4717 13.2786 17.259 10.5908 17.4839 8.78254C17.5801 8.0093 18.1209 7.38664 18.8281 7.16125V8.82812H18.8281Z" fill="white"/>
<path d="M10 1.93555C9.62422 1.58176 9.04004 1.21094 8.24219 1.21094C6.80125 1.21094 5.89844 2.60391 5.89844 4.08734C5.89844 5.80602 7.05719 7.4143 9.65563 9.30215L10 9.55238L10.3444 9.30215C12.9428 7.4143 14.1016 5.80602 14.1016 4.08734C14.1016 2.5959 13.1921 1.21094 11.7578 1.21094C10.96 1.21094 10.3758 1.58176 10 1.93555ZM9.99555 4.09379C9.99555 5.31375 12.4966 2.48914 10.5 4C8.50344 2.4891 10 6.21996 10 5C10 4.16215 9.26203 4.09379 9.99555 4.09379C10.7786 4.09379 9.45617 3.08301 9.48949 3.13922L9.99555 4.09379L10.5104 3.13949C10.5425 3.08508 8.21582 3.13949 9 3.13949C9.73352 3.13949 9.99555 3.25594 9.99555 4.09379Z" fill="#F44336"/>
</svg>
