<svg width="17" height="16" viewBox="0 0 17 16" fill="none" xmlns="http://www.w3.org/2000/svg">
<path d="M6.09311 13.8495V11.8111C6.09311 11.2907 6.51804 10.8689 7.04221 10.8689L8.95833 10.8689C9.21005 10.8689 9.45146 10.9681 9.62945 11.1448C9.80744 11.3215 9.90744 11.5612 9.90744 11.8111V13.8495C9.90584 14.0659 9.9913 14.2739 10.1448 14.4274C10.2984 14.581 10.5073 14.6673 10.7252 14.6673H12.0325C12.643 14.6689 13.2291 14.4292 13.6614 14.0012C14.0936 13.5732 14.3366 12.992 14.3366 12.3859V6.57856C14.3366 6.08896 14.118 5.62455 13.7397 5.31043L9.29261 1.78456C8.51903 1.16636 7.41067 1.18632 6.66018 1.83197L2.3146 5.31043C1.91842 5.61529 1.68162 6.08108 1.66992 6.57856V12.3799C1.66992 13.6432 2.70151 14.6673 3.97404 14.6673H5.25145C5.70407 14.6673 6.07192 14.3048 6.0752 13.8555L6.09311 13.8495Z" fill="white"/>
</svg>
