<svg width="16" height="16" viewBox="0 0 16 16" fill="none" xmlns="http://www.w3.org/2000/svg">
<path d="M1.69494 1.57484H5.23042L6.36998 4.42375L4.53932 5.64419C4.32027 5.79023 4.18869 6.03609 4.18869 6.29937C4.19069 6.37309 4.18869 6.30016 4.18869 6.30016L4.18869 6.30098L4.18869 6.30274L4.18872 6.30671L4.18883 6.31643C4.18895 6.32369 4.18915 6.3325 4.18948 6.34283C4.19015 6.36347 4.19135 6.39016 4.19351 6.42249C4.19782 6.48713 4.20594 6.57452 4.22121 6.6814C4.25172 6.89502 4.31096 7.18767 4.42595 7.53265C4.65685 8.22535 5.11054 9.12223 5.99416 10.0058C6.87777 10.8895 7.77465 11.3432 8.46735 11.5741C8.81233 11.689 9.10497 11.7483 9.3186 11.7788C9.42548 11.7941 9.51287 11.8022 9.57751 11.8065C9.60984 11.8087 9.63653 11.8099 9.65717 11.8105C9.66749 11.8109 9.67631 11.8111 9.68357 11.8112L9.69328 11.8113L9.69726 11.8113L9.69902 11.8113L9.69984 11.8113C9.69984 11.8113 9.78775 11.8065 9.70063 11.8113C9.99888 11.8113 10.2715 11.6428 10.4049 11.376L10.9323 10.3214L14.4252 10.9035V14.3051C12.7628 14.5455 8.27336 14.7824 4.74548 11.2545C1.2176 7.72664 1.45454 3.23716 1.69494 1.57484ZM5.82152 6.68212L7.24355 5.7341C7.8632 5.321 8.10877 4.53033 7.83219 3.83887L6.69262 0.98996C6.45346 0.392058 5.87438 0 5.23042 0H1.6538C0.938422 0 0.265036 0.49699 0.147597 1.27318C-0.119583 3.03905 -0.483251 8.25296 3.6319 12.3681C7.74704 16.4833 12.9609 16.1196 14.7268 15.8524C15.503 15.735 16 15.0616 16 14.3462V10.9035C16 10.1337 15.4434 9.47666 14.6841 9.3501L11.1912 8.76795C10.5092 8.65429 9.83286 8.9987 9.52368 9.61708L9.25084 10.1628C9.16508 10.1417 9.06936 10.1147 8.96536 10.08C8.47693 9.91721 7.79897 9.58349 7.10774 8.89226C6.41651 8.20103 6.08279 7.52307 5.91998 7.03464C5.87598 6.90266 5.84431 6.78398 5.82152 6.68212Z" fill="white"/>
</svg>
