<svg width="11" height="11" viewBox="0 0 11 11" fill="none" xmlns="http://www.w3.org/2000/svg">
<path d="M5.5 1.83366C4.48748 1.83366 3.66667 2.65447 3.66667 3.66699C3.66667 4.67951 4.48748 5.50033 5.5 5.50033C6.51252 5.50033 7.33333 4.67951 7.33333 3.66699C7.33333 2.65447 6.51252 1.83366 5.5 1.83366ZM2.75 3.66699C2.75 2.14821 3.98122 0.916992 5.5 0.916992C7.01878 0.916992 8.25 2.14821 8.25 3.66699C8.25 5.18578 7.01878 6.41699 5.5 6.41699C3.98122 6.41699 2.75 5.18578 2.75 3.66699ZM3.66667 8.25033C2.90728 8.25033 2.29167 8.86593 2.29167 9.62533C2.29167 9.87846 2.08646 10.0837 1.83333 10.0837C1.5802 10.0837 1.375 9.87846 1.375 9.62533C1.375 8.35967 2.40101 7.33366 3.66667 7.33366H7.33333C8.59899 7.33366 9.625 8.35967 9.625 9.62533C9.625 9.87846 9.4198 10.0837 9.16667 10.0837C8.91354 10.0837 8.70833 9.87846 8.70833 9.62533C8.70833 8.86593 8.09272 8.25033 7.33333 8.25033H3.66667Z" fill="#0C0B15"/>
</svg>
